<?xml version="1.0" encoding="UTF-8" standalone="no"?>
<svg
   xmlns:dc="http://purl.org/dc/elements/1.1/"
   xmlns:cc="http://creativecommons.org/ns#"
   xmlns:rdf="http://www.w3.org/1999/02/22-rdf-syntax-ns#"
   xmlns:svg="http://www.w3.org/2000/svg"
   xmlns="http://www.w3.org/2000/svg"
   xmlns:sodipodi="http://sodipodi.sourceforge.net/DTD/sodipodi-0.dtd"
   xmlns:inkscape="http://www.inkscape.org/namespaces/inkscape"
   version="1.1"
   id="Capa_1"
   x="0px"
   y="0px"
   viewBox="0 0 511.99999 512.00001"
   enable-background="new 0 0 841.9 595.3"
   xml:space="preserve"
   sodipodi:docname="1f645-1f3fe.svg"
   width="512"
   height="512"
   inkscape:version="1.0.1 (3bc2e813f5, 2020-09-07)"
   inkscape:export-filename="C:\Users\ajsb85\dev\Xtromba\press-kit\Symbol (2)\Symbol\1f645-1f3fe.png"
   inkscape:export-xdpi="96"
   inkscape:export-ydpi="96"><metadata
   id="metadata31"><rdf:RDF><cc:Work
       rdf:about=""><dc:format>image/svg+xml</dc:format><dc:type
         rdf:resource="http://purl.org/dc/dcmitype/StillImage" /><dc:title></dc:title></cc:Work></rdf:RDF></metadata><defs
   id="defs29" /><sodipodi:namedview
   pagecolor="#ffffff"
   bordercolor="#666666"
   borderopacity="1"
   objecttolerance="10"
   gridtolerance="10"
   guidetolerance="10"
   inkscape:pageopacity="0"
   inkscape:pageshadow="2"
   inkscape:window-width="1920"
   inkscape:window-height="1027"
   id="namedview27"
   showgrid="false"
   inkscape:zoom="1.2293621"
   inkscape:cx="420.95001"
   inkscape:cy="297.64999"
   inkscape:window-x="-8"
   inkscape:window-y="-8"
   inkscape:window-maximized="1"
   inkscape:current-layer="Capa_1" />











<g
   id="g868"
   transform="matrix(0.86723809,0,0,0.86723809,-108.67362,-8.6290789)"><path
     fill="#1a171b"
     d="M 222.5,463 H 619.4 V 595.3 H 222.5 Z"
     id="path2" /><path
     fill="#60352a"
     d="M 485.5,20.9 C 452.1,10.1 373.5,13 353.9,38.6 c -51.1,1 -111,47.1 -118.9,108.1 -7.8,60.3 9.6,88.3 15.7,133.6 7,51.4 35.8,67.8 58.9,74.7 33.2,43.9 68.5,42 127.8,42 115.7,0 170.9,-77.5 175.8,-209 3,-79.7 -43.7,-140 -127.7,-167.1 z"
     id="path4" /><path
     fill="#af7e57"
     d="m 551.7,193.5 c -11.2,-15.5 -25.5,-28 -57,-32.4 11.8,5.4 23.1,24.1 24.6,34.4 1.5,10.3 2.9,18.7 -6.4,8.4 -37.4,-41.3 -78.1,-25.1 -118.4,-50.3 -28.2,-17.6 -36.8,-37.1 -36.8,-37.1 0,0 -3.4,26 -46.2,52.5 -12.4,7.7 -27.2,24.8 -35.4,50.1 -5.9,18.2 -4.1,34.4 -4.1,62.1 0,80.8 66.6,148.8 148.8,148.8 82.2,0 148.8,-68.6 148.8,-148.8 0.2,-50.4 -5.1,-70 -17.9,-87.7 z"
     id="path6" /><path
     fill="#915a34"
     d="m 437.5,322.4 h -33.1 c -4.6,0 -8.3,-3.7 -8.3,-8.3 0,-4.6 3.7,-8.3 8.3,-8.3 h 33.1 c 4.6,0 8.3,3.7 8.3,8.3 -0.1,4.6 -3.8,8.3 -8.3,8.3 z"
     id="path8" /><path
     fill="#662113"
     d="m 354.8,264.6 c -9.1,0 -16.5,-7.4 -16.5,-16.5 v -16.5 c 0,-9.1 7.4,-16.5 16.5,-16.5 9.1,0 16.5,7.4 16.5,16.5 V 248 c 0,9.2 -7.4,16.6 -16.5,16.6 z m 132.3,0 c -9.1,0 -16.5,-7.4 -16.5,-16.5 v -16.5 c 0,-9.1 7.4,-16.5 16.5,-16.5 9.1,0 16.5,7.4 16.5,16.5 V 248 c 0,9.2 -7.4,16.6 -16.5,16.6 z"
     id="path10" /><path
     fill="#9b6a49"
     d="m 176.1,298.1 c 4.3,-8 12.8,-12.2 21,-11.5 0.6,-1.1 117.1,48.6 117.1,48.6 l -21,25.6 c -11.6,14.1 -31.5,16.9 -44.6,6.2 L 221,344.3 183.6,325.5 c -9.7,-4.9 -13,-17.2 -7.5,-27.4 z"
     id="path12" /><path
     fill="#af7e57"
     d="m 129.3,247.8 c -5.8,7.1 -5.2,17.1 1.3,22.5 l 81.3,45.3 59,48.4 c 6.5,5.3 16.5,4 22.3,-3.1 l 21,-25.6 -23.6,-19.3 -53.3,-31.3 -85.7,-39.9 c 0,-0.1 -16.5,-4.1 -22.3,3 z"
     id="path14" /><path
     fill="#da001a"
     d="m 280.7,304.9 c 0,0 324,143.1 332.5,146.9 19.7,8.7 52.2,28.1 52.2,60.8 l -5.8,78.5 c 0,2.3 -1.9,4.1 -4.1,4.1 h -54.9 c -0.8,0 -1.6,-0.2 -2.3,-0.7 L 276.7,378.6 c -1.1,-0.8 -1.8,-2.1 -1.8,-3.4 v -66.6 c 0,-2.9 3.1,-4.9 5.8,-3.7 z"
     id="path16" /><path
     fill="#1a171b"
     d="m 424.7,368.2 -12.9,-5.4 -106.9,34.9 24.5,17 z m 86,38.3 16.7,7.4 -85.6,76 -63.2,-0.4 z"
     id="path18" /><path
     fill="#9b6a49"
     d="m 664.9,298.1 c -4.3,-8 -12.8,-12.2 -21,-11.5 -0.6,-1.1 -117.1,48.6 -117.1,48.6 l 21,25.6 c 11.6,14.1 31.5,16.9 44.6,6.2 l 27.7,-22.7 37.4,-18.8 c 9.6,-4.9 12.9,-17.2 7.4,-27.4 z"
     id="path20" /><path
     fill="#af7e57"
     d="m 711.7,247.8 c 5.8,7.1 5.2,17.1 -1.3,22.5 l -81.4,45.2 -59,48.4 c -6.5,5.3 -16.5,4 -22.3,-3.1 l -21,-25.6 23.6,-19.3 53.3,-31.3 85.7,-39.9 c 0.1,0 16.6,-4 22.4,3.1 z"
     id="path22" /><path
     fill="#da001a"
     d="m 560.3,304.9 c 0,0 -324,143.1 -332.5,146.9 -19.7,8.7 -52.2,28.1 -52.2,60.8 l 5.8,78.5 c 0,2.3 1.9,4.1 4.1,4.1 h 54.9 c 0.8,0 1.6,-0.2 2.3,-0.7 L 564.1,378.6 c 1.1,-0.8 1.8,-2.1 1.8,-3.4 v -66.6 c 0.2,-2.9 -2.9,-4.9 -5.6,-3.7 z"
     id="path24" /></g>
</svg>
