<?xml version="1.0" encoding="UTF-8" standalone="no"?>
<svg
   xmlns:dc="http://purl.org/dc/elements/1.1/"
   xmlns:cc="http://creativecommons.org/ns#"
   xmlns:rdf="http://www.w3.org/1999/02/22-rdf-syntax-ns#"
   xmlns:svg="http://www.w3.org/2000/svg"
   xmlns="http://www.w3.org/2000/svg"
   xmlns:sodipodi="http://sodipodi.sourceforge.net/DTD/sodipodi-0.dtd"
   xmlns:inkscape="http://www.inkscape.org/namespaces/inkscape"
   version="1.1"
   id="Capa_1"
   x="0px"
   y="0px"
   viewBox="0 0 511.99999 512.00001"
   enable-background="new 0 0 841.9 595.3"
   xml:space="preserve"
   sodipodi:docname="1f645-1f3fe-200d-2640-fe0f.svg"
   width="512"
   height="512"
   inkscape:export-filename="C:\Users\ajsb85\dev\Xtromba\press-kit\Symbol (2)\Symbol\1f645-1f3fe-200d-2640-fe0f.png"
   inkscape:export-xdpi="96"
   inkscape:export-ydpi="96"
   inkscape:version="1.0.1 (3bc2e813f5, 2020-09-07)"><metadata
   id="metadata33"><rdf:RDF><cc:Work
       rdf:about=""><dc:format>image/svg+xml</dc:format><dc:type
         rdf:resource="http://purl.org/dc/dcmitype/StillImage" /><dc:title></dc:title></cc:Work></rdf:RDF></metadata><defs
   id="defs31" /><sodipodi:namedview
   pagecolor="#ffffff"
   bordercolor="#666666"
   borderopacity="1"
   objecttolerance="10"
   gridtolerance="10"
   guidetolerance="10"
   inkscape:pageopacity="0"
   inkscape:pageshadow="2"
   inkscape:window-width="1920"
   inkscape:window-height="1027"
   id="namedview29"
   showgrid="false"
   inkscape:zoom="1.2293621"
   inkscape:cx="420.95001"
   inkscape:cy="297.64999"
   inkscape:window-x="-8"
   inkscape:window-y="-8"
   inkscape:window-maximized="1"
   inkscape:current-layer="Capa_1" />












<g
   id="g886"
   transform="matrix(0.86723809,0,0,0.86723809,-108.67362,-2.1334175)"><path
     fill="#60352a"
     d="m 437.5,0 c -28.5,0 -55.3,6.7 -79.3,18.4 -6.5,-1.1 -13.1,-1.8 -20,-1.8 -63.9,0 -115.7,51.8 -115.7,115.7 v 198.4 h 0.3 c 3,106.9 90.5,192.7 198.1,192.7 107.6,0 195.1,-85.8 198.2,-192.7 h 0.3 V 181.9 C 619.4,81.4 537.9,0 437.5,0 Z"
     id="path2" /><path
     fill="#af7e57"
     d="m 354.8,82.7 c 0,0 0,87.8 -82.7,98.2 v 100.3 c 0,82.2 66.6,148.8 148.8,148.8 82.2,0 148.8,-66.6 148.8,-148.8 v -83 C 386,191.9 354.8,82.7 354.8,82.7 Z"
     id="path4" /><circle
     fill="#df1f32"
     cx="420.89999"
     cy="363.79999"
     r="16.5"
     id="circle6" /><path
     fill="#1a171b"
     d="M 222.5,463 H 619.4 V 595.3 H 222.5 Z"
     id="path8" /><path
     fill="#915a34"
     d="m 437.5,322.4 h -33.1 c -4.6,0 -8.3,-3.7 -8.3,-8.3 0,-4.6 3.7,-8.3 8.3,-8.3 h 33.1 c 4.6,0 8.3,3.7 8.3,8.3 -0.1,4.6 -3.8,8.3 -8.3,8.3 z"
     id="path10" /><path
     fill="#60352a"
     d="m 354.8,264.6 c -9.1,0 -16.5,-7.4 -16.5,-16.5 v -16.5 c 0,-9.1 7.4,-16.5 16.5,-16.5 9.1,0 16.5,7.4 16.5,16.5 V 248 c 0,9.2 -7.4,16.6 -16.5,16.6 z m 132.3,0 c -9.1,0 -16.5,-7.4 -16.5,-16.5 v -16.5 c 0,-9.1 7.4,-16.5 16.5,-16.5 9.1,0 16.5,7.4 16.5,16.5 V 248 c 0,9.2 -7.4,16.6 -16.5,16.6 z"
     id="path12" /><path
     fill="#9b6a49"
     d="m 176.1,298.1 c 4.3,-8 12.8,-12.2 21,-11.5 0.6,-1.1 117.1,48.6 117.1,48.6 l -21,25.6 c -11.6,14.1 -31.5,16.9 -44.6,6.2 L 221,344.3 183.6,325.5 c -9.7,-4.9 -13,-17.2 -7.5,-27.4 z"
     id="path14" /><path
     fill="#af7e57"
     d="m 129.3,247.8 c -5.8,7.1 -5.2,17.1 1.3,22.5 l 81.3,45.3 59,48.4 c 6.5,5.3 16.5,4 22.3,-3.1 l 21,-25.6 -23.6,-19.3 -53.3,-31.3 -85.7,-39.9 c 0,-0.1 -16.5,-4.1 -22.3,3 z"
     id="path16" /><path
     fill="#da001a"
     d="m 280.7,304.9 c 0,0 324,143.1 332.5,146.9 19.7,8.7 52.2,28.1 52.2,60.8 l -5.8,78.5 c 0,2.3 -1.9,4.1 -4.1,4.1 h -54.9 c -0.8,0 -1.6,-0.2 -2.3,-0.7 L 276.7,378.6 c -1.1,-0.8 -1.8,-2.1 -1.8,-3.4 v -66.6 c 0,-2.9 3.1,-4.9 5.8,-3.7 z"
     id="path18" /><path
     fill="#1a171b"
     d="m 424.7,368.2 -12.9,-5.4 -106.9,34.9 24.5,17 z m 86,38.3 16.7,7.4 -85.6,76 -63.2,-0.4 z"
     id="path20" /><path
     fill="#9b6a49"
     d="m 664.9,298.1 c -4.3,-8 -12.8,-12.2 -21,-11.5 -0.6,-1.1 -117.1,48.6 -117.1,48.6 l 21,25.6 c 11.6,14.1 31.5,16.9 44.6,6.2 l 27.7,-22.7 37.4,-18.8 c 9.6,-4.9 12.9,-17.2 7.4,-27.4 z"
     id="path22" /><path
     fill="#af7e57"
     d="m 711.7,247.8 c 5.8,7.1 5.2,17.1 -1.3,22.5 l -81.4,45.2 -59,48.4 c -6.5,5.3 -16.5,4 -22.3,-3.1 l -21,-25.6 23.6,-19.3 53.3,-31.3 85.7,-39.9 c 0.1,0 16.6,-4 22.4,3.1 z"
     id="path24" /><path
     fill="#da001a"
     d="m 560.3,304.9 c 0,0 -324,143.1 -332.5,146.9 -19.7,8.7 -52.2,28.1 -52.2,60.8 l 5.8,78.5 c 0,2.3 1.9,4.1 4.1,4.1 h 54.9 c 0.8,0 1.6,-0.2 2.3,-0.7 L 564.1,378.6 c 1.1,-0.8 1.8,-2.1 1.8,-3.4 v -66.6 c 0.2,-2.9 -2.9,-4.9 -5.6,-3.7 z"
     id="path26" /></g>
</svg>
